<?xml version="1.0" standalone="no"?>
<!DOCTYPE svg PUBLIC "-//W3C//DTD SVG 20010904//EN"
 "http://www.w3.org/TR/2001/REC-SVG-20010904/DTD/svg10.dtd">
<svg version="1.0" xmlns="http://www.w3.org/2000/svg"
 width="4724.000000pt" height="4724.000000pt" viewBox="0 0 4724.000000 4724.000000"
 preserveAspectRatio="xMidYMid meet">

<g transform="translate(0.000000,4724.000000) scale(0.100000,-0.100000)"
fill="#000000" stroke="none">
<path d="M18340 35633 c-25 -2 -81 -10 -125 -18 -115 -21 -203 -33 -345 -44
-205 -17 -445 -61 -645 -117 -65 -19 -127 -34 -137 -34 -10 0 -44 -9 -75 -19
-32 -11 -94 -30 -138 -44 -44 -14 -129 -44 -190 -67 -60 -23 -137 -51 -170
-62 -33 -12 -82 -34 -108 -50 -26 -15 -50 -28 -54 -28 -21 0 -308 -139 -432
-209 -306 -173 -570 -361 -869 -616 -58 -49 -128 -108 -156 -131 -49 -39 -316
-322 -425 -449 -105 -124 -259 -324 -335 -435 -42 -63 -96 -142 -119 -176 -55
-80 -98 -148 -121 -193 -10 -20 -33 -61 -52 -92 -48 -80 -169 -320 -209 -414
-18 -44 -57 -136 -85 -205 -28 -69 -59 -145 -70 -170 -40 -97 -90 -237 -90
-253 0 -9 -13 -58 -29 -109 -46 -151 -99 -357 -116 -453 -8 -49 -28 -155 -44
-235 -16 -80 -35 -201 -41 -270 -6 -69 -18 -172 -26 -230 -23 -162 -27 -314
-15 -570 7 -129 14 -275 16 -325 2 -49 11 -175 20 -280 8 -104 20 -244 25
-310 5 -66 16 -143 25 -170 8 -28 24 -120 35 -205 12 -85 28 -177 36 -205 7
-27 23 -93 34 -145 10 -52 29 -126 40 -165 11 -38 27 -101 36 -140 14 -67 61
-210 139 -430 20 -55 45 -126 55 -159 10 -32 80 -183 156 -335 119 -240 162
-319 244 -441 9 -14 42 -70 74 -125 69 -119 159 -248 241 -343 33 -38 92 -109
130 -157 83 -105 479 -507 582 -591 39 -33 134 -114 210 -180 77 -67 162 -134
189 -149 53 -29 95 -55 279 -174 151 -98 136 -89 415 -224 221 -107 335 -156
440 -191 25 -8 95 -33 155 -56 148 -55 157 -58 260 -80 50 -10 178 -39 286
-64 228 -52 337 -72 469 -86 52 -5 118 -17 145 -25 109 -34 873 -50 1207 -26
76 5 184 18 240 30 57 11 145 25 196 31 51 7 127 23 170 36 42 13 89 24 104
24 15 0 47 6 70 14 24 7 90 28 148 46 58 18 137 43 175 57 39 13 104 34 145
47 41 13 95 33 120 45 25 11 51 21 58 21 6 0 60 23 120 51 59 29 161 77 227
108 66 31 167 87 225 124 58 38 157 101 220 140 63 40 140 91 170 115 30 23
95 73 143 110 209 160 461 394 620 577 174 199 477 609 551 745 10 19 51 94
91 165 98 176 165 310 215 430 23 55 61 143 85 195 24 52 55 136 70 185 14 50
46 153 70 230 59 189 81 272 105 391 11 55 26 118 33 140 8 21 17 66 21 99 19
170 30 249 48 335 28 134 37 344 33 720 -4 330 -6 348 -53 585 -35 173 -117
377 -191 475 -15 19 -35 48 -45 63 -29 48 -86 105 -164 169 -99 80 -116 89
-262 137 -111 36 -163 48 -355 82 -52 10 -2999 13 -3115 4 -83 -7 -101 -10
-240 -51 -217 -63 -283 -92 -406 -181 -170 -122 -289 -283 -372 -503 -52 -137
-67 -263 -57 -460 6 -110 12 -141 51 -258 48 -149 83 -215 161 -314 149 -188
261 -271 498 -366 208 -83 337 -94 1225 -101 393 -3 721 -10 728 -14 29 -19
33 -58 14 -136 -11 -42 -27 -114 -36 -161 -16 -75 -70 -263 -113 -390 -59
-170 -263 -566 -300 -581 -5 -2 -31 -38 -58 -79 -103 -162 -277 -343 -463
-483 -112 -85 -334 -199 -462 -237 -41 -12 -91 -30 -110 -40 -19 -10 -69 -23
-110 -30 -41 -6 -124 -23 -184 -36 -198 -45 -854 -61 -1011 -25 -421 97 -646
182 -905 342 -63 39 -138 90 -166 112 -29 23 -86 69 -128 101 -75 58 -255 246
-328 342 -156 204 -187 253 -347 542 -79 143 -191 412 -216 520 -8 35 -24 83
-35 107 -11 24 -25 68 -31 97 -6 29 -24 103 -39 163 -16 61 -34 153 -40 205
-6 52 -19 129 -30 170 -32 133 -44 332 -44 780 -1 450 4 529 49 725 13 55 26
131 30 170 4 38 15 97 25 130 10 33 26 94 35 135 25 109 129 416 179 529 24
53 52 116 62 141 23 59 135 256 196 347 27 40 63 98 82 128 51 86 233 300 347
410 150 144 328 289 406 331 37 20 82 47 98 59 55 41 315 158 480 216 44 15
100 35 125 44 24 9 81 21 127 26 45 5 119 18 165 29 66 16 134 21 357 26 377
9 474 -1 796 -83 55 -14 127 -32 160 -40 147 -37 336 -99 405 -133 190 -93
325 -174 678 -407 209 -138 256 -165 452 -264 157 -78 253 -115 346 -133 44
-8 122 -23 174 -33 279 -52 536 23 790 233 129 106 283 300 345 435 55 122
103 403 86 514 -53 365 -135 549 -350 788 -148 165 -305 312 -386 362 -16 10
-59 42 -95 70 -171 134 -471 307 -715 412 -43 19 -84 38 -90 42 -5 5 -33 16
-60 25 -28 9 -67 27 -87 41 -20 13 -58 29 -84 35 -26 6 -83 25 -128 42 -45 17
-108 41 -142 54 -115 44 -517 146 -671 170 -51 8 -135 20 -185 28 -51 8 -117
19 -146 25 -29 6 -162 20 -295 30 -133 11 -273 25 -312 30 -38 5 -167 12 -285
16 -118 3 -251 7 -295 9 -44 1 -100 1 -125 -1z"/>
<path d="M31300 35440 c-94 -6 -190 -29 -221 -53 -50 -38 -65 -146 -28 -207
26 -43 67 -88 94 -103 11 -5 56 -21 100 -33 44 -13 118 -35 165 -49 74 -23
241 -73 459 -136 81 -23 111 -43 111 -72 0 -79 -75 -85 -281 -23 -85 25 -170
48 -189 52 -32 5 -71 16 -210 60 -25 7 -75 18 -112 23 -37 5 -71 12 -76 15 -4
2 -62 12 -128 20 -65 9 -167 23 -226 33 -99 15 -112 15 -189 0 -63 -12 -96
-25 -137 -54 -70 -48 -86 -84 -79 -178 l5 -70 63 -58 c38 -34 79 -62 102 -68
20 -5 58 -19 83 -30 25 -10 78 -26 118 -35 112 -25 135 -30 241 -59 55 -15
136 -35 180 -46 44 -10 121 -33 170 -50 50 -18 140 -50 200 -71 61 -22 131
-46 157 -55 26 -9 69 -33 95 -53 38 -29 48 -42 48 -65 0 -30 -1 -30 -55 -30
-61 1 -102 6 -240 34 -52 11 -133 27 -180 36 -47 10 -121 26 -165 37 -44 11
-114 25 -155 32 -41 8 -154 28 -250 45 -96 17 -226 41 -289 52 -63 12 -156 23
-207 26 -88 6 -96 4 -149 -22 -94 -48 -138 -108 -151 -208 -11 -81 10 -138 79
-209 34 -36 87 -78 117 -96 49 -27 208 -85 350 -127 25 -7 77 -23 115 -35 78
-24 95 -29 349 -94 98 -25 202 -50 230 -56 103 -19 187 -38 213 -48 16 -6 74
-25 131 -42 105 -32 142 -55 142 -90 0 -59 -151 -53 -505 19 -55 11 -127 23
-160 27 -72 8 -129 18 -210 37 -33 8 -127 27 -210 42 -233 42 -294 53 -375 71
-49 10 -106 14 -165 12 -78 -4 -97 -8 -143 -35 -29 -16 -63 -45 -76 -62 -29
-39 -51 -145 -42 -204 10 -66 74 -162 137 -205 30 -20 63 -45 74 -55 35 -32
106 -57 305 -108 107 -28 218 -61 247 -75 28 -13 63 -24 77 -24 13 0 37 -7 53
-15 15 -8 85 -41 154 -74 70 -32 129 -64 133 -69 3 -6 23 -16 44 -23 20 -6 46
-19 57 -29 25 -23 105 -72 170 -105 75 -38 116 -65 186 -122 35 -29 98 -79
140 -112 42 -33 126 -111 188 -173 162 -163 194 -197 236 -253 20 -27 40 -52
44 -55 32 -25 125 -160 162 -233 12 -23 29 -51 39 -62 10 -11 29 -39 42 -61
55 -99 84 -148 106 -181 13 -20 30 -56 39 -82 8 -25 32 -80 53 -121 71 -144
202 -563 220 -706 6 -43 14 -103 20 -133 5 -31 13 -107 19 -170 8 -98 6 -129
-10 -220 -11 -58 -24 -134 -29 -168 -47 -305 -192 -737 -325 -968 -32 -55 -73
-127 -92 -160 -56 -97 -202 -307 -246 -353 -14 -15 -38 -46 -54 -69 -49 -72
-304 -330 -422 -425 -62 -51 -141 -116 -175 -144 -69 -58 -127 -89 -234 -128
-39 -14 -82 -32 -95 -40 -20 -12 -61 -27 -252 -86 -33 -10 -94 -26 -135 -35
-41 -9 -120 -28 -175 -43 -125 -32 -190 -39 -495 -52 -204 -8 -268 -7 -385 6
-77 8 -183 19 -235 24 -108 11 -234 38 -399 87 -62 18 -118 33 -124 33 -16 0
-210 72 -224 83 -13 9 -132 47 -231 72 -30 8 -63 22 -75 32 -11 10 -29 25 -39
33 -11 8 -32 27 -48 43 -15 15 -32 27 -37 27 -4 0 -39 29 -77 65 -38 36 -73
65 -78 65 -4 0 -11 0 -15 -1 -4 0 -15 16 -25 36 -11 20 -27 39 -36 42 -20 7
-93 81 -137 138 -16 21 -43 50 -59 64 -57 51 -66 61 -66 81 0 12 -10 25 -25
32 -14 6 -25 17 -25 24 0 8 -11 21 -25 30 -14 9 -25 23 -25 31 0 8 -15 28 -33
46 -19 18 -49 59 -67 91 -18 33 -38 66 -45 73 -7 7 -21 30 -32 52 -10 22 -28
44 -41 50 -17 8 -22 16 -17 31 4 13 -2 31 -18 52 -14 18 -32 47 -41 63 -9 17
-28 45 -41 64 -14 19 -25 43 -25 55 0 21 -84 237 -106 271 -7 11 -16 38 -20
60 -3 22 -12 51 -20 65 -10 20 -39 111 -58 185 -2 6 -6 -12 -10 -38 -8 -52 24
-254 49 -313 7 -17 17 -53 21 -80 4 -27 13 -63 20 -81 8 -18 14 -46 14 -63 0
-17 5 -40 11 -51 6 -11 13 -44 16 -72 15 -128 2 -245 -34 -297 -12 -19 -23
-42 -23 -51 0 -10 -4 -19 -8 -21 -4 -1 -21 -20 -36 -41 -16 -20 -40 -40 -55
-44 -14 -3 -34 -14 -44 -24 -26 -28 -164 -27 -221 1 -58 28 -134 105 -161 162
-12 27 -29 56 -37 66 -8 9 -23 46 -33 82 -9 36 -24 77 -31 92 -8 15 -14 37
-14 50 0 13 -6 35 -14 50 -8 14 -17 46 -21 70 -8 45 -66 198 -89 233 -8 12
-19 48 -26 80 -6 33 -18 69 -25 80 -7 12 -20 57 -30 100 -9 44 -26 96 -37 115
-11 19 -26 55 -33 80 -33 111 -86 253 -104 279 -12 16 -21 36 -21 44 0 22 -27
39 -50 32 -23 -7 -25 -32 -10 -97 6 -24 19 -83 30 -133 12 -49 29 -112 39
-140 43 -121 53 -151 52 -170 -1 -28 36 -149 65 -213 13 -29 24 -61 24 -72 0
-11 9 -43 20 -72 11 -29 20 -63 20 -74 0 -12 7 -40 15 -63 8 -24 17 -72 20
-107 4 -36 13 -88 22 -117 8 -29 17 -69 20 -90 3 -20 9 -40 14 -43 5 -3 9 -66
9 -141 0 -131 -1 -138 -30 -194 -16 -32 -39 -68 -50 -79 -11 -11 -20 -25 -20
-31 0 -5 -29 -23 -65 -40 -86 -39 -176 -41 -238 -4 -56 32 -157 137 -157 162
0 30 -20 83 -46 121 -23 33 -36 72 -90 257 -14 50 -41 122 -60 161 -18 40 -39
96 -45 125 -6 29 -25 77 -40 106 -16 30 -29 67 -29 83 0 40 -36 175 -59 225
-25 52 -80 192 -91 230 -30 104 -59 146 -87 124 -7 -7 -13 -23 -13 -38 0 -14
-2 -41 -6 -59 -5 -26 -1 -41 15 -62 11 -16 21 -44 21 -62 0 -18 9 -62 20 -98
21 -70 53 -267 52 -315 -1 -16 6 -52 14 -80 9 -27 22 -75 29 -105 8 -30 28
-109 45 -175 18 -66 39 -147 47 -180 8 -33 22 -78 31 -100 20 -46 23 -174 6
-196 -7 -8 -15 -28 -18 -45 -11 -51 -81 -111 -152 -129 -58 -15 -64 -14 -105
3 -24 11 -50 26 -57 35 -7 8 -26 21 -43 28 -22 8 -37 26 -50 56 -10 23 -23 43
-28 43 -11 0 -51 84 -51 107 0 19 -41 93 -51 93 -5 0 -13 19 -20 43 -6 23 -15
53 -19 67 -4 14 -13 45 -21 70 -7 25 -16 49 -21 55 -4 5 -8 16 -8 25 0 8 -8
31 -18 50 -19 35 -54 146 -67 210 -4 19 -10 40 -14 45 -8 11 -26 86 -37 150
-4 22 -13 58 -21 80 -8 22 -21 65 -29 96 -17 70 -56 160 -77 177 -25 21 -43
-20 -29 -67 6 -20 13 -65 16 -101 3 -36 10 -78 15 -95 9 -25 35 -153 57 -275
3 -14 9 -38 14 -55 55 -173 72 -314 45 -366 -10 -19 -21 -41 -25 -49 -11 -24
-112 -81 -132 -74 -10 3 -27 2 -38 -1 -29 -9 -25 -50 10 -115 16 -30 29 -64
30 -75 0 -11 23 -69 50 -129 28 -61 50 -115 50 -120 0 -6 12 -33 26 -61 36
-67 94 -212 94 -235 0 -10 11 -31 24 -47 13 -15 29 -46 36 -68 6 -22 22 -56
34 -75 12 -19 33 -61 46 -93 12 -32 34 -65 46 -74 15 -9 24 -25 24 -40 0 -27
14 -58 40 -88 10 -11 23 -38 30 -60 7 -22 26 -59 41 -82 16 -23 29 -47 29 -54
0 -6 25 -42 55 -80 30 -37 55 -76 55 -85 0 -9 16 -39 35 -65 19 -27 35 -55 35
-62 0 -8 9 -22 20 -32 11 -10 26 -38 32 -62 6 -24 18 -48 28 -53 9 -5 23 -24
31 -42 18 -47 57 -96 87 -111 27 -13 33 -22 57 -77 23 -53 95 -163 116 -178
11 -7 19 -22 19 -33 0 -10 6 -19 14 -19 8 0 18 -11 23 -24 8 -24 39 -63 139
-174 28 -31 57 -66 65 -76 8 -10 38 -44 68 -75 29 -31 58 -71 63 -88 5 -18 14
-33 21 -33 7 0 26 -17 42 -36 73 -88 189 -194 211 -194 3 0 29 -24 59 -52 61
-61 184 -156 229 -178 17 -8 43 -23 58 -33 37 -25 97 -58 198 -107 47 -22 108
-53 135 -67 28 -14 98 -42 156 -63 58 -20 110 -39 115 -42 5 -4 47 -18 94 -33
47 -15 108 -36 135 -46 95 -35 190 -62 240 -69 57 -8 139 -24 235 -45 159 -34
330 -44 507 -30 83 7 108 5 135 -8 37 -17 172 -47 215 -47 15 0 71 -9 123 -19
52 -11 172 -27 265 -36 94 -8 196 -20 227 -26 100 -17 441 -30 788 -29 476 1
532 4 910 39 58 6 155 15 215 20 61 6 146 19 190 30 44 10 112 22 150 25 74 8
240 42 365 76 41 11 107 29 145 40 96 26 146 45 208 79 28 16 70 35 92 41 46
15 251 125 280 151 11 9 45 35 76 56 83 58 212 154 266 200 26 23 84 72 128
109 296 247 669 702 724 881 16 54 69 129 194 275 37 44 67 82 67 86 0 4 16
25 36 47 46 52 139 174 189 250 22 34 57 81 76 106 107 133 411 617 517 823
46 88 119 226 162 306 43 80 101 197 130 260 29 63 84 183 123 265 38 83 75
170 82 195 7 25 26 83 43 130 17 47 48 135 70 195 42 114 93 312 111 425 5 36
16 101 23 145 24 149 12 554 -21 690 -6 22 -15 90 -21 150 -11 106 -73 379
-126 555 -14 47 -30 102 -35 122 -5 21 -27 79 -50 130 -22 51 -47 116 -56 143
-23 77 -110 224 -184 312 -38 44 -104 180 -149 303 -20 58 -53 137 -73 175
-19 39 -40 88 -47 110 -7 22 -27 67 -45 100 -18 33 -38 78 -45 100 -7 22 -29
74 -50 115 -81 160 -140 285 -140 294 0 5 -11 24 -25 42 -14 19 -32 51 -39 72
-8 21 -38 80 -67 130 -30 51 -61 105 -69 120 -8 15 -31 54 -51 87 -21 33 -45
76 -54 95 -34 73 -64 120 -230 360 -32 47 -79 114 -103 149 -134 196 -199 279
-317 407 -55 60 -131 147 -170 194 -112 135 -345 368 -400 399 -27 16 -59 37
-70 48 -40 38 -198 135 -283 175 -48 22 -107 51 -132 63 -176 90 -549 225
-712 259 -42 8 -94 23 -115 31 -44 19 -415 81 -518 88 -38 2 -113 1 -165 -3z"/>
<path d="M12600 23114 c-112 -14 -244 -39 -305 -59 -173 -57 -333 -150 -409
-239 -90 -105 -121 -161 -157 -276 -22 -67 -24 -94 -24 -255 0 -202 10 -251
74 -385 88 -182 219 -293 431 -365 132 -45 151 -34 170 94 13 83 13 84 -11
102 -13 10 -49 23 -79 30 -68 14 -176 69 -232 119 -134 118 -196 364 -139 550
83 268 262 386 653 431 168 19 410 -16 486 -70 15 -10 37 -21 48 -25 36 -11
138 -121 172 -184 67 -125 91 -312 57 -443 -29 -111 -108 -204 -230 -274 -27
-16 -53 -34 -57 -40 -13 -18 -8 -78 10 -140 26 -86 46 -91 147 -34 43 24 99
63 125 86 69 62 143 176 181 278 32 88 33 94 33 245 0 128 -4 169 -23 239 -43
161 -152 340 -258 422 -81 63 -173 117 -230 134 -145 45 -335 71 -433 59z"/>
<path d="M35780 23096 c-165 -38 -240 -71 -346 -149 -86 -63 -137 -119 -199
-217 -109 -172 -150 -387 -120 -626 18 -145 109 -326 215 -429 169 -165 394
-255 700 -281 83 -7 263 21 366 56 74 26 189 88 257 139 137 104 251 305 287
506 16 92 8 319 -14 400 -24 84 -90 214 -151 293 -191 249 -643 389 -995 308z
m338 -236 c84 -11 162 -25 172 -30 10 -6 27 -10 38 -10 11 0 57 -19 103 -42
116 -58 213 -156 269 -273 35 -71 43 -101 52 -185 16 -139 1 -229 -52 -336
-68 -135 -174 -233 -318 -296 -56 -24 -194 -48 -277 -48 -97 0 -295 27 -365
50 -248 82 -404 259 -430 489 -17 149 5 277 66 386 34 63 58 92 122 146 105
91 184 126 347 152 50 8 97 15 105 16 8 0 84 -8 168 -19z"/>
<path d="M30120 22440 c-299 -25 -461 -63 -680 -162 -154 -70 -237 -120 -366
-223 -201 -161 -302 -275 -408 -460 -76 -132 -107 -209 -146 -355 -39 -151
-54 -301 -47 -483 10 -271 75 -485 208 -682 44 -65 159 -185 210 -219 26 -17
80 -53 120 -80 81 -54 278 -151 434 -215 94 -38 374 -129 530 -173 180 -50
361 -114 480 -170 199 -93 263 -166 280 -324 20 -176 -72 -341 -241 -431 -121
-64 -140 -68 -354 -67 -242 1 -207 -8 -698 178 -256 96 -353 119 -487 114 -90
-4 -108 -8 -177 -40 -232 -109 -353 -305 -334 -543 13 -169 73 -303 186 -415
81 -80 209 -172 295 -210 110 -49 381 -132 625 -189 142 -34 233 -42 530 -48
232 -4 309 -2 414 12 547 71 930 277 1215 655 93 124 200 348 242 510 47 177
70 357 71 550 0 274 -31 429 -127 622 -154 309 -392 512 -826 703 -228 101
-403 163 -594 210 -55 14 -131 34 -170 45 -38 11 -118 33 -177 49 -74 19 -128
41 -178 71 -86 52 -121 86 -160 154 -26 44 -30 61 -30 129 0 58 5 88 21 122
61 129 264 224 481 225 150 0 361 -41 542 -106 190 -68 185 -67 326 -68 127 0
139 1 200 28 222 97 359 304 360 543 0 74 -32 198 -70 273 -70 138 -298 284
-585 374 -251 79 -631 119 -915 96z"/>
<path d="M17480 22402 c-247 -14 -433 -160 -530 -413 -11 -31 -25 -102 -31
-164 -7 -74 -9 -755 -7 -2060 3 -1760 5 -1955 20 -2000 33 -105 55 -148 107
-218 113 -152 252 -229 436 -241 125 -8 197 5 295 52 143 70 263 211 314 367
33 105 37 194 36 932 0 402 3 738 6 747 16 42 50 15 250 -202 111 -119 238
-260 284 -312 46 -52 117 -130 159 -174 42 -43 87 -91 101 -107 14 -15 56 -61
94 -103 38 -42 78 -88 90 -104 11 -15 44 -50 71 -78 28 -27 68 -70 91 -94 22
-25 121 -133 220 -240 98 -108 208 -229 244 -270 97 -112 238 -247 304 -292
175 -120 352 -154 533 -102 151 43 291 155 358 285 37 71 58 190 50 286 -16
215 -93 348 -369 637 -27 28 -112 118 -189 201 -78 82 -204 218 -282 300 -78
83 -191 204 -251 270 -60 66 -159 172 -220 235 -188 195 -429 451 -437 467
-14 24 20 64 334 385 162 166 371 380 464 476 94 96 202 207 240 246 208 211
259 273 328 397 65 118 87 197 87 313 0 161 -48 274 -169 396 -155 156 -357
214 -558 159 -129 -35 -189 -74 -323 -210 -93 -94 -395 -426 -455 -500 -47
-57 -292 -334 -391 -440 -49 -53 -143 -158 -209 -234 -322 -372 -420 -474
-437 -457 -10 10 -14 159 -19 665 -6 730 -6 725 -78 872 -108 219 -318 342
-561 327z"/>
<path d="M21968 22376 c-42 -12 -103 -40 -136 -62 -111 -74 -219 -221 -258
-354 -32 -111 -34 -217 -34 -2117 0 -2047 -1 -2020 51 -2157 60 -162 207 -298
397 -366 56 -21 75 -22 180 -17 139 6 197 25 308 99 87 58 156 138 206 241 73
148 69 6 68 2202 0 1155 -4 1993 -9 2027 -13 79 -54 190 -93 255 -38 63 -146
169 -211 208 -116 67 -319 85 -469 41z"/>
<path d="M24230 22320 c-19 -4 -62 -13 -95 -20 -96 -19 -209 -84 -296 -170
-86 -84 -122 -147 -165 -286 l-28 -89 -3 -1845 c-2 -2017 -4 -1952 56 -2106
77 -200 209 -322 419 -388 l97 -30 805 -4 c871 -3 853 -4 1155 54 120 23 359
103 460 155 251 127 394 230 588 424 312 312 496 645 607 1100 58 241 70 340
77 630 10 471 -21 675 -168 1113 -34 102 -148 338 -198 410 -10 15 -34 52 -52
82 -146 236 -387 460 -704 655 -252 154 -596 261 -975 302 -128 14 -278 17
-850 19 -382 1 -711 -2 -730 -6z m1220 -1079 c160 -10 206 -18 382 -70 150
-44 358 -177 460 -293 92 -106 116 -141 176 -263 76 -154 113 -286 141 -504
16 -126 13 -460 -5 -556 -8 -44 -19 -109 -25 -145 -37 -251 -203 -572 -365
-707 -127 -106 -349 -203 -544 -238 -139 -25 -766 -34 -795 -12 -20 15 -20 28
-22 1388 -1 1022 1 1377 10 1387 6 8 20 18 32 23 23 9 309 4 555 -10z"/>
<path d="M34962 21048 c-16 -21 -44 -132 -40 -163 4 -38 20 -45 203 -95 202
-55 275 -76 375 -108 78 -25 85 -30 88 -55 4 -31 -17 -115 -104 -427 -31 -113
-68 -245 -81 -295 -13 -49 -31 -100 -39 -112 -20 -31 -58 -30 -185 7 -57 17
-129 37 -159 46 -63 17 -127 35 -220 63 -143 43 -151 40 -181 -67 -28 -101
-23 -118 49 -137 31 -9 98 -29 147 -45 50 -15 110 -31 135 -35 41 -6 392 -113
448 -136 13 -5 32 -9 43 -9 11 0 45 -8 77 -18 31 -10 95 -29 142 -41 213 -57
434 -119 543 -152 62 -19 70 -19 92 -5 26 17 57 106 59 171 l1 40 -100 26
c-55 14 -152 40 -215 58 -471 133 -448 125 -456 157 -8 29 -3 56 25 159 13 44
29 103 36 130 7 28 30 109 50 180 20 72 50 180 66 240 17 61 37 121 46 134 14
21 20 23 67 17 28 -3 84 -17 124 -31 39 -14 79 -25 88 -25 9 0 37 -7 63 -15
46 -16 182 -54 359 -103 89 -24 93 -24 112 -7 22 20 75 179 66 194 -6 9 -102
41 -181 59 -91 22 -376 102 -575 161 -36 10 -110 31 -165 46 -55 15 -118 33
-140 40 -22 7 -78 23 -125 35 -47 12 -105 28 -130 35 -25 8 -81 23 -125 35
-44 13 -107 31 -139 41 -69 22 -129 25 -144 7z"/>
<path d="M13725 20430 c-67 -25 -499 -175 -605 -210 -47 -16 -150 -52 -230
-80 -80 -28 -183 -64 -230 -80 -208 -70 -461 -160 -480 -170 -11 -6 -20 -21
-20 -34 0 -39 41 -139 66 -163 l23 -22 73 24 c40 13 98 33 128 43 188 68 531
182 548 182 29 0 35 -12 80 -150 22 -69 62 -186 89 -260 86 -232 143 -407 143
-434 0 -31 -7 -34 -245 -116 -506 -173 -507 -173 -515 -196 -18 -46 45 -194
82 -194 11 0 86 23 166 51 81 28 185 64 232 79 47 16 139 47 205 71 217 76
486 168 745 255 140 47 265 93 278 100 13 9 22 24 22 39 0 39 -40 148 -61 167
-22 19 -44 14 -209 -45 -271 -97 -459 -157 -473 -152 -19 8 -42 61 -100 235
-25 74 -78 227 -117 340 -93 265 -93 266 -80 289 6 13 46 31 117 55 171 55
481 164 511 178 37 18 38 46 7 128 -36 95 -56 105 -150 70z"/>
<path d="M35280 18891 c-36 -9 -85 -29 -110 -43 -53 -32 -134 -113 -182 -183
-38 -55 -159 -288 -238 -460 -28 -60 -56 -113 -63 -117 -24 -15 -52 -7 -154
42 -57 28 -106 50 -109 50 -3 0 -87 40 -187 89 -211 103 -220 106 -247 91 -25
-14 -82 -136 -78 -170 3 -21 20 -34 108 -77 162 -81 446 -217 535 -256 44 -19
132 -59 195 -90 276 -133 694 -328 715 -333 13 -3 32 -3 43 0 17 6 67 100 143
271 12 28 49 106 82 175 89 187 121 265 152 370 23 81 26 108 23 185 -4 78
-10 100 -41 162 -47 94 -68 123 -141 181 -86 70 -150 100 -247 117 -102 18
-116 18 -199 -4z m235 -273 c59 -31 136 -104 159 -152 21 -44 21 -156 0 -226
-9 -30 -40 -104 -69 -165 -29 -60 -74 -157 -100 -215 -26 -58 -52 -111 -57
-117 -25 -31 -67 -17 -337 113 -73 36 -151 72 -172 81 -79 31 -75 49 82 361
123 244 148 280 231 322 58 29 69 31 138 27 55 -3 88 -11 125 -29z"/>
<path d="M14605 18260 c-27 -5 -129 -18 -225 -30 -96 -12 -228 -31 -294 -41
-65 -10 -133 -19 -152 -19 -18 0 -90 -9 -161 -19 -176 -27 -341 -49 -447 -62
-49 -5 -93 -12 -98 -15 -4 -3 -58 -9 -120 -14 -131 -11 -247 -38 -261 -61 -11
-17 27 -104 69 -156 21 -27 25 -28 100 -25 43 2 123 11 179 22 55 10 142 24
194 30 116 13 124 9 182 -97 23 -43 59 -107 79 -143 95 -166 179 -329 190
-367 11 -37 11 -45 -5 -70 -21 -31 -129 -161 -247 -297 -58 -65 -78 -96 -78
-116 0 -35 75 -177 101 -191 25 -13 41 -3 80 51 18 25 79 101 137 170 57 69
140 170 185 225 45 54 103 122 128 150 25 27 61 73 80 100 18 28 61 82 94 120
33 39 78 95 100 125 22 30 58 75 81 100 23 25 107 128 188 230 165 207 160
191 100 293 -19 32 -34 62 -34 66 0 4 -10 17 -23 29 -24 23 -41 25 -122 12z
m-59 -225 c7 -18 6 -20 -211 -267 -94 -106 -200 -228 -235 -271 -68 -81 -94
-98 -116 -76 -22 23 -254 451 -254 470 0 27 20 36 105 47 232 29 442 62 580
92 103 23 124 23 131 5z"/>
<path d="M33628 17713 c-14 -16 -33 -41 -42 -58 -10 -16 -35 -55 -57 -85 -22
-30 -59 -84 -84 -120 -24 -36 -62 -90 -83 -120 -111 -155 -312 -469 -312 -486
0 -31 0 -31 170 -147 93 -64 115 -78 240 -160 47 -31 105 -70 130 -88 25 -17
108 -75 185 -127 486 -330 520 -360 512 -459 -3 -41 -11 -62 -35 -92 -18 -22
-32 -48 -32 -58 0 -30 91 -113 123 -113 42 0 102 62 144 148 33 66 37 83 37
146 -1 87 -32 173 -79 219 -111 109 -271 224 -910 655 -158 106 -185 128 -185
152 0 9 19 45 43 80 23 35 56 85 73 112 17 27 44 65 61 86 16 20 51 72 77 115
44 71 86 117 107 117 4 0 63 -37 129 -82 67 -46 165 -112 219 -148 89 -59 282
-190 402 -273 57 -40 357 -243 408 -277 21 -14 53 -35 72 -48 54 -36 75 -27
132 55 35 51 47 77 42 92 -5 17 -137 112 -405 294 -63 42 -70 47 -205 142 -55
39 -125 85 -155 103 -30 18 -86 55 -125 83 -38 28 -101 71 -140 96 -38 25 -83
55 -100 67 -117 82 -309 206 -319 206 -7 0 -24 -12 -38 -27z"/>
<path d="M15288 17153 c-35 -28 -181 -148 -267 -220 -23 -20 -75 -61 -115 -91
-39 -30 -87 -69 -107 -86 -19 -17 -82 -67 -138 -111 -57 -44 -135 -106 -174
-138 -39 -32 -118 -95 -176 -139 -58 -45 -133 -107 -167 -137 -33 -31 -82 -75
-107 -98 -56 -51 -60 -84 -18 -153 33 -55 70 -76 103 -59 26 14 111 81 116 91
2 3 29 26 60 49 31 24 86 68 121 99 36 30 99 82 142 115 42 33 110 87 150 121
216 176 445 357 466 367 13 5 26 7 30 3 10 -10 -29 -84 -110 -209 -41 -62 -91
-141 -112 -177 -22 -36 -71 -113 -111 -171 -39 -58 -105 -162 -146 -230 -66
-109 -133 -216 -256 -409 -46 -71 -45 -96 7 -163 67 -87 69 -87 261 -18 91 32
244 87 340 121 96 34 227 81 290 105 63 24 153 57 200 73 47 16 138 48 203 71
65 24 135 45 154 48 l37 6 -22 -31 c-12 -17 -53 -54 -90 -84 -36 -29 -121 -98
-188 -153 -66 -55 -167 -136 -224 -180 -57 -44 -136 -107 -174 -140 -39 -34
-91 -77 -116 -96 -183 -144 -239 -192 -245 -209 -8 -25 20 -71 74 -124 43 -42
67 -44 106 -9 34 30 166 136 225 179 30 23 66 52 80 66 14 13 95 80 180 148
85 68 216 174 290 235 74 61 167 136 205 166 39 29 72 56 75 59 3 3 48 39 100
81 111 89 160 133 160 146 0 5 -21 38 -47 72 -27 35 -54 73 -62 85 -34 49 -66
76 -90 76 -14 -1 -66 -16 -116 -36 -49 -19 -151 -57 -225 -83 -124 -45 -280
-101 -470 -171 -41 -15 -153 -55 -247 -88 -95 -34 -181 -65 -190 -71 -10 -5
-53 -21 -96 -36 -77 -26 -117 -29 -124 -9 -3 10 74 135 252 404 56 85 108 166
115 180 12 25 43 74 152 240 77 118 246 386 275 436 27 48 23 70 -24 125 -16
19 -41 51 -57 72 -38 52 -101 117 -113 117 -5 0 -25 -12 -45 -27z"/>
<path d="M32525 16208 c-78 -79 -190 -197 -250 -262 -61 -66 -185 -199 -276
-295 -171 -181 -193 -209 -183 -234 6 -15 414 -413 483 -471 23 -20 115 -105
204 -189 364 -345 538 -507 561 -522 18 -12 30 -14 43 -7 19 11 190 182 310
312 164 178 234 252 344 365 239 247 246 257 211 302 -26 33 -93 83 -111 83
-21 0 -66 -42 -246 -235 -82 -88 -175 -185 -205 -216 -30 -31 -102 -108 -160
-171 -89 -98 -134 -138 -155 -138 -9 0 -181 158 -352 323 -39 37 -63 68 -63
81 1 20 79 112 229 271 460 484 436 451 365 513 -66 57 -81 64 -101 54 -10 -6
-56 -50 -103 -99 -100 -103 -403 -423 -479 -505 -29 -32 -62 -60 -72 -63 -33
-11 -72 21 -297 238 -100 97 -109 111 -89 140 18 27 332 363 523 560 128 131
144 151 144 181 0 28 -9 42 -51 80 -28 25 -58 46 -67 46 -9 0 -80 -64 -157
-142z"/>
<path d="M16663 15398 c-49 -57 -113 -130 -144 -163 -30 -33 -74 -84 -96 -113
-23 -29 -62 -76 -86 -105 -113 -131 -175 -204 -213 -251 -23 -28 -83 -98 -133
-156 -50 -58 -124 -145 -165 -195 -41 -49 -99 -119 -130 -155 -77 -88 -79
-101 -25 -156 24 -25 59 -54 77 -66 45 -28 86 -22 317 45 66 19 181 51 255 71
74 21 164 46 200 57 79 23 448 126 685 191 39 10 84 23 101 28 38 12 71 13 78
1 3 -5 -8 -28 -26 -52 -50 -70 -304 -371 -395 -468 -28 -31 -73 -84 -100 -117
-26 -34 -87 -106 -134 -160 -133 -153 -189 -226 -189 -246 0 -17 56 -78 97
-105 41 -27 67 -9 169 115 53 64 133 160 179 212 46 52 127 147 180 210 119
141 150 177 306 360 68 80 158 185 199 233 171 200 171 200 78 277 -34 29 -73
56 -86 61 -28 11 -19 13 -357 -85 -27 -8 -86 -24 -130 -36 -44 -11 -109 -29
-145 -40 -119 -35 -424 -121 -530 -150 -58 -15 -136 -37 -175 -48 -242 -70
-275 -76 -275 -50 0 11 217 275 340 413 101 113 205 234 235 274 11 14 78 93
148 175 152 177 154 184 69 253 -29 24 -61 43 -72 43 -12 0 -52 -38 -107 -102z"/>
<path d="M31465 15148 c-27 -22 -93 -72 -146 -112 -53 -40 -140 -108 -195
-151 -234 -185 -403 -318 -562 -440 -94 -72 -112 -99 -94 -140 20 -44 73 -95
99 -95 29 0 35 4 261 177 95 73 181 133 192 133 22 0 33 -11 156 -167 213
-269 308 -393 379 -489 17 -23 84 -108 150 -190 66 -82 146 -183 177 -225 82
-107 104 -129 131 -129 31 0 157 95 157 119 0 17 -53 91 -170 236 -31 39 -74
95 -95 125 -22 30 -56 73 -75 96 -40 47 -139 173 -220 279 -30 40 -100 130
-155 200 -197 252 -215 278 -215 306 0 23 17 41 107 111 164 128 194 151 245
186 82 57 86 92 16 168 -51 56 -76 56 -143 2z"/>
<path d="M29764 13947 c-108 -63 -107 -62 -100 -127 3 -30 15 -109 26 -175 11
-66 26 -163 34 -215 16 -103 80 -498 96 -595 20 -117 79 -492 100 -630 27
-180 28 -185 44 -191 16 -6 129 47 170 80 l29 23 -17 109 c-16 99 -40 232 -67
372 -13 67 -2 87 72 126 30 16 77 43 104 61 28 18 120 73 205 122 85 49 171
99 190 111 42 26 77 28 110 5 14 -10 85 -67 158 -128 215 -178 230 -188 262
-187 51 1 200 95 200 125 0 7 -57 56 -127 110 -71 53 -164 125 -208 160 -44
35 -145 112 -225 173 -149 113 -536 412 -644 497 -79 62 -199 155 -245 189
-49 37 -83 34 -167 -15z m248 -311 c57 -47 195 -161 308 -254 161 -132 205
-173 205 -192 0 -26 -20 -40 -292 -197 -89 -51 -169 -93 -176 -93 -8 0 -19 6
-25 13 -6 7 -27 116 -47 243 -20 126 -53 303 -75 393 -21 91 -36 169 -33 173
8 15 26 4 135 -86z"/>
<path d="M18868 13883 c-9 -10 -34 -55 -56 -99 -22 -45 -51 -101 -65 -125 -14
-24 -41 -80 -60 -124 -19 -44 -157 -326 -307 -627 -198 -400 -271 -554 -268
-574 3 -24 15 -34 80 -68 73 -37 78 -38 101 -23 16 10 105 178 281 534 383
773 410 825 428 837 17 10 14 12 623 -291 93 -46 175 -89 182 -95 18 -15 16
-44 -8 -108 -30 -78 -48 -116 -90 -190 -89 -158 -549 -1087 -549 -1109 0 -25
36 -54 108 -85 57 -25 65 -26 85 -13 13 8 49 72 86 153 60 130 261 534 351
704 100 189 330 674 330 694 0 13 -6 28 -12 34 -16 12 -241 129 -433 224 -77
38 -274 136 -438 219 -171 86 -310 149 -326 149 -15 0 -35 -8 -43 -17z"/>
<path d="M28542 13310 c-79 -11 -153 -32 -262 -75 -47 -18 -177 -69 -290 -113
-113 -44 -222 -85 -242 -92 -66 -20 -64 -35 38 -283 41 -98 74 -180 74 -183 0
-3 7 -20 14 -37 14 -31 81 -201 153 -392 18 -49 38 -99 43 -110 5 -11 39 -96
75 -190 76 -199 117 -301 161 -405 27 -65 35 -75 59 -78 15 -2 42 3 59 12 17
8 103 43 191 77 88 34 192 74 230 90 39 15 115 46 170 67 118 46 230 116 303
189 167 166 173 456 15 650 -70 86 -199 153 -292 153 -26 0 -54 6 -63 13 -15
11 -13 18 22 74 90 148 77 325 -35 469 -104 134 -244 188 -423 164z m165 -240
c122 -70 170 -221 111 -350 -28 -63 -64 -94 -165 -144 -66 -33 -100 -47 -288
-119 -178 -68 -187 -69 -204 -25 -27 69 -75 187 -87 216 -8 18 -14 37 -14 43
0 6 -13 41 -30 79 -37 84 -39 127 -7 140 12 5 99 40 192 77 305 120 399 136
492 83z m329 -685 c51 -21 108 -79 140 -142 25 -51 29 -69 29 -143 0 -62 -5
-94 -18 -117 -46 -85 -127 -145 -267 -197 -41 -16 -88 -35 -105 -42 -66 -31
-272 -106 -300 -111 -38 -6 -43 0 -83 102 -51 132 -142 368 -153 397 -17 43
-3 64 59 89 31 12 75 30 97 39 22 10 72 29 110 44 39 15 81 32 95 37 150 63
308 81 396 44z"/>
<path d="M20915 12967 c-151 -40 -264 -103 -401 -224 -75 -66 -191 -271 -237
-419 -48 -151 -60 -234 -54 -378 6 -162 30 -256 97 -381 94 -175 246 -308 425
-373 180 -66 331 -85 466 -58 257 52 421 163 564 381 69 105 102 181 138 320
47 177 54 320 25 475 -59 318 -289 552 -634 645 -80 22 -322 29 -389 12z m400
-230 c138 -47 214 -101 290 -205 91 -124 122 -240 112 -427 -17 -338 -194
-635 -442 -737 -145 -60 -353 -46 -508 34 -142 73 -252 207 -298 363 -19 61
-21 86 -16 205 5 110 11 153 36 235 67 226 163 381 288 467 45 31 122 61 238
92 49 13 231 -3 300 -27z"/>
<path d="M26593 12745 c-86 -15 -91 -19 -108 -59 -15 -37 -54 -263 -95 -556
-31 -220 -53 -365 -90 -595 -38 -233 -91 -589 -97 -649 l-6 -59 49 6 c90 11
149 27 167 46 15 15 25 62 48 232 34 261 43 307 60 324 14 12 28 16 194 49 44
9 105 23 135 31 78 19 223 51 303 65 53 10 74 10 90 1 21 -12 67 -77 219 -311
100 -154 104 -157 177 -142 106 22 161 42 161 58 0 19 -63 115 -345 519 -87
125 -124 178 -199 290 -41 61 -96 142 -123 180 -62 88 -214 310 -299 435 -100
148 -101 150 -137 149 -18 0 -64 -7 -104 -14z m157 -372 c39 -65 118 -190 175
-278 165 -251 190 -295 179 -313 -10 -15 -76 -37 -144 -48 -32 -5 -68 -13
-285 -62 -44 -10 -91 -15 -105 -12 -32 8 -31 11 3 255 51 354 57 404 57 458 0
156 26 156 120 0z"/>
<path d="M22873 12589 c-28 -5 -87 -25 -130 -45 -133 -63 -240 -191 -298 -356
-27 -79 -17 -94 84 -128 76 -25 106 -21 116 17 18 74 76 173 131 221 77 69
142 92 259 92 88 0 99 -3 170 -36 41 -21 89 -52 105 -71 136 -154 89 -360
-100 -445 -61 -28 -71 -29 -184 -27 -104 2 -121 0 -132 -15 -17 -24 -30 -145
-17 -165 7 -11 34 -19 79 -24 146 -16 250 -61 329 -142 41 -42 55 -65 69 -114
27 -95 6 -195 -55 -272 -65 -83 -224 -147 -334 -134 -72 8 -156 31 -206 56
-87 44 -180 178 -218 312 -21 74 -39 82 -136 60 -67 -15 -95 -33 -95 -60 0
-25 59 -190 86 -241 85 -159 205 -249 408 -304 107 -29 301 -31 391 -4 211 64
370 223 405 405 15 82 12 162 -10 233 -24 80 -105 197 -157 229 -69 42 -70 64
-4 107 182 118 241 355 140 560 -63 128 -169 213 -333 267 -83 27 -266 39
-363 24z"/>
<path d="M25372 12531 c-23 -4 -48 -13 -55 -20 -16 -16 -15 -128 9 -571 8
-146 9 -145 -118 -153 -130 -9 -466 -25 -635 -31 -188 -6 -182 -10 -188 144
-12 291 -28 547 -37 563 -13 25 -166 25 -198 -1 l-22 -18 10 -220 c6 -120 14
-289 17 -374 3 -85 10 -238 16 -340 5 -102 16 -322 24 -489 9 -194 18 -308 26
-317 17 -21 167 -19 198 2 20 15 22 22 17 68 -3 28 -8 143 -11 256 -3 113 -10
264 -16 336 -5 73 -6 139 -3 148 9 23 19 24 309 40 307 18 571 23 602 12 28
-9 30 -24 39 -251 7 -208 10 -265 19 -433 8 -146 9 -147 126 -140 111 7 112 8
104 142 -12 239 -16 311 -25 576 -6 151 -12 304 -15 340 -3 36 -9 169 -15 295
-15 346 -21 414 -37 431 -15 15 -67 17 -141 5z"/>
</g>
</svg>
